<svg xmlns="http://www.w3.org/2000/svg" viewBox="0 0 108 108">
  <!-- Natural Circular Background: #27847d -->
  <circle cx="54" cy="54" r="54" fill="#27847d"/>
  
  <g transform="translate(54, 54) scale(0.9) translate(-54, -54)">
    <!-- Mosque Outline: Pure White -->
    <path d="m84.55,55.01v17.65c0,3.49 -2.44,6.67 -6.29,8.34 -7.21,3.12 -15.48,4.9 -24.27,4.9s-17.05,-1.78 -24.26,-4.9c-3.85,-1.67 -6.29,-4.85 -6.29,-8.34v-17.65c0,-6.72 3.74,-12.8 9.71,-17.04 1.52,-1.08 3.18,-2.06 4.97,-2.88 0.01,0 0.03,0 0.03,-0.01 0.01,-0.01 0.03,-0.01 0.04,-0.01 0.73,-0.28 1.44,-0.58 2.13,-0.9 0.01,-0.01 0.03,-0.02 0.04,-0.02 5.3,-2.52 9.46,-6.39 11.73,-11.01 0.67,-1.37 3.12,-1.37 3.8,0 2.27,4.63 6.44,8.5 11.74,11.01 0.01,0 0.03,0.01 0.04,0.02 0.68,0.32 1.4,0.63 2.12,0.9t0.04,0.01s0.03,0.01 0.03,0.01c1.8,0.83 3.46,1.8 4.98,2.88 5.96,4.25 9.71,10.32 9.71,17.04Z" fill="none" stroke="#ffffff" stroke-width="7" stroke-linecap="round" stroke-linejoin="round"/>
    <path d="m65.27,58.45v26.38h-22.54v-26.38c0,-6.23 5.05,-11.27 11.27,-11.27 3.11,0 5.93,1.26 7.97,3.3 2.04,2.04 3.3,4.86 3.3,7.97Z" fill="none" stroke="#ffffff" stroke-width="5.5" stroke-linecap="round"/>
  </g>
</svg>
